<svg viewBox="0 0 972 498" fill="currentColor" xmlns="http://www.w3.org/2000/svg">
    <path d="M57.2411 349.368C44.1381 349.368 33.7791 353.839 26.1719 362.784C18.618 371.671 14.8334 383.864 14.8334 399.363C14.8334 415.302 18.4807 427.635 25.764 436.354C33.1007 445.019 43.5359 449.35 57.0773 449.35C65.3934 449.35 74.8758 447.823 85.5321 444.766V457.181C77.2693 460.343 67.0742 461.928 54.9582 461.928C37.3998 461.928 23.8356 456.488 14.2693 445.599C4.75645 434.715 0 419.243 0 399.195C0 386.64 2.28674 375.643 6.8488 366.199C11.468 356.756 18.1034 349.481 26.7473 344.372C35.4408 339.263 45.6626 336.708 57.405 336.708C69.9059 336.708 80.8328 339.041 90.1856 343.706L84.3124 355.872C75.2836 351.537 66.2624 349.368 57.2411 349.368Z"/>
    <path d="M185.381 417.306C185.381 431.484 181.802 442.572 174.635 450.559C167.468 458.498 157.571 462.463 144.942 462.463C137.139 462.463 130.214 460.642 124.164 456.988C118.113 453.334 113.443 448.1 110.15 441.274C106.857 434.448 105.216 426.458 105.216 417.306C105.216 403.128 108.77 392.096 115.884 384.209C122.991 376.274 132.867 372.305 145.5 372.305C157.701 372.305 167.39 376.352 174.557 384.446C181.772 392.545 185.381 403.499 185.381 417.306ZM118.91 417.306C118.91 428.417 121.138 436.882 125.596 442.702C130.058 448.523 136.61 451.435 145.262 451.435C153.909 451.435 160.462 448.552 164.92 442.784C169.433 436.967 171.684 428.472 171.684 417.31C171.684 406.252 169.433 397.864 164.92 392.151C160.462 386.383 153.853 383.501 145.102 383.501C136.454 383.501 129.92 386.331 125.514 391.992C121.112 397.649 118.91 406.088 118.91 417.306Z"/>
    <path d="M317.382 462.463V404.865C317.382 397.808 315.884 392.529 312.891 389.032C309.898 385.479 305.253 383.701 298.949 383.701C290.67 383.701 284.549 386.098 280.597 390.89C276.645 395.682 274.667 403.064 274.667 413.025V462.463H261.362V404.865C261.362 397.808 259.867 392.529 256.874 389.032C253.885 385.479 249.202 383.701 242.849 383.701C234.514 383.701 228.397 386.231 224.497 391.294C220.654 396.301 218.729 404.54 218.729 416.012V462.463H205.423V373.925H216.245L218.41 386.042H219.047C221.557 381.733 225.089 378.365 229.626 375.945C234.222 373.521 239.35 372.309 245.01 372.309C258.743 372.309 267.718 377.319 271.94 387.333H272.581C275.195 382.7 278.994 379.037 283.961 376.345C288.928 373.653 294.596 372.305 300.949 372.305C310.887 372.305 318.319 374.891 323.23 380.061C328.201 385.177 330.681 393.39 330.681 404.699V462.46H317.382V462.463Z"/>
    <path d="M467.688 462.463V404.865C467.688 397.808 466.19 392.529 463.201 389.032C460.208 385.479 455.559 383.701 449.251 383.701C440.973 383.701 434.853 386.098 430.905 390.89C426.949 395.682 424.972 403.064 424.972 413.025V462.463H411.667V404.865C411.667 397.808 410.176 392.529 407.183 389.032C404.19 385.479 399.516 383.701 393.159 383.701C384.821 383.701 378.704 386.231 374.808 391.294C370.962 396.301 369.04 404.54 369.04 416.012V462.463H355.731V373.925H366.553L368.718 386.042H369.362C371.872 381.733 375.397 378.365 379.936 375.945C384.536 373.521 389.664 372.309 395.324 372.309C409.048 372.309 418.031 377.319 422.248 387.333H422.893C425.511 382.7 429.302 379.037 434.268 376.345C439.239 373.653 444.903 372.305 451.263 372.305C461.197 372.305 468.621 374.891 473.535 380.061C478.502 385.177 480.989 393.39 480.989 404.699V462.46H467.688V462.463Z"/>
    <path d="M545.692 462.463C533.434 462.463 523.75 458.55 516.635 450.718C509.572 442.887 506.042 432.014 506.042 418.098C506.042 404.075 509.321 392.939 515.878 384.684C522.484 376.43 531.34 372.305 542.439 372.305C552.83 372.305 561.053 375.903 567.104 383.1C573.162 390.242 576.186 399.687 576.186 411.436V419.768H519.057C519.308 429.981 521.759 437.73 526.4 443.024C531.086 448.318 537.675 450.963 546.145 450.963C555.075 450.963 563.903 449.004 572.628 445.091V456.836C568.186 458.846 563.977 460.275 559.991 461.12C556.059 462.014 551.291 462.463 545.692 462.463ZM542.287 383.334C535.627 383.334 530.308 385.608 526.318 390.16C522.385 394.708 520.062 401.004 519.358 409.046H562.718C562.718 400.74 560.95 394.389 557.417 390.001C553.891 385.556 548.847 383.334 542.287 383.334Z"/>
    <path d="M640.941 372.305C644.804 372.305 648.271 372.626 651.34 373.275L649.518 385.714C645.918 384.906 642.741 384.502 639.987 384.502C632.95 384.502 626.916 387.413 621.887 393.228C616.91 399.047 614.42 406.29 614.42 414.96V462.463H601.237V373.921H612.115L613.622 390.321H614.256C617.485 384.558 621.378 380.114 625.932 376.991C630.486 373.868 635.485 372.305 640.941 372.305Z"/>
    <path d="M702.403 462.463C689.351 462.463 679.233 458.602 672.052 450.878C664.925 443.099 661.361 432.119 661.361 417.941C661.361 403.391 664.974 392.148 672.213 384.209C679.506 376.274 689.874 372.305 703.306 372.305C707.635 372.305 711.967 372.754 716.3 373.655C720.628 374.553 724.031 375.614 726.495 376.827L722.301 388.019C719.287 386.858 715.996 385.904 712.436 385.162C708.869 384.369 705.72 383.972 702.971 383.972C684.661 383.972 675.5 395.241 675.5 417.781C675.5 428.468 677.722 436.67 682.162 442.387C686.66 448.1 693.295 450.96 702.068 450.96C709.58 450.96 717.284 449.398 725.18 446.275V457.945C719.156 460.957 711.556 462.463 702.403 462.463Z"/>
    <path d="M781.178 462.463C768.916 462.463 759.23 458.55 752.121 450.718C745.058 442.887 741.525 432.014 741.525 418.098C741.525 404.075 744.807 392.939 751.361 384.684C757.97 376.43 766.823 372.305 777.924 372.305C788.314 372.305 796.533 375.903 802.588 383.1C808.639 390.242 811.67 399.687 811.67 411.436V419.768H754.544C754.795 429.981 757.242 437.73 761.882 443.024C766.571 448.318 773.157 450.963 781.63 450.963C790.553 450.963 799.387 449.004 808.112 445.091V456.836C803.67 458.846 799.462 460.275 795.476 461.12C791.54 462.014 786.776 462.463 781.178 462.463ZM777.772 383.334C771.112 383.334 765.786 385.608 761.804 390.16C757.871 394.708 755.548 401.004 754.844 409.046H798.199C798.199 400.74 796.431 394.389 792.901 390.001C789.372 385.556 784.329 383.334 777.772 383.334Z"/>
    <path d="M831.711 452.482C831.711 449.182 832.332 446.691 833.583 445.016C834.869 443.292 836.699 442.428 839.07 442.428C841.483 442.428 843.355 443.292 844.684 445.016C846.057 446.691 846.742 449.182 846.742 452.482C846.742 455.685 846.057 458.151 844.684 459.876C843.314 461.6 841.443 462.463 839.07 462.463C836.947 462.463 835.183 461.696 833.77 460.169C832.396 458.59 831.711 456.03 831.711 452.482Z"/>
    <path d="M863.269 492.516C858.537 492.516 854.696 491.865 851.753 490.57V480.064C855.195 481.101 858.582 481.621 861.92 481.621C865.81 481.621 868.651 480.504 870.444 478.274C872.289 476.092 873.212 472.745 873.212 468.234V368.922H885.626V467.299C885.63 484.109 878.175 492.516 863.269 492.516ZM872.167 345.807C872.167 342.849 872.863 340.696 874.264 339.346C875.659 337.946 877.399 337.243 879.496 337.243C881.488 337.243 883.208 337.942 884.658 339.346C886.102 340.747 886.825 342.9 886.825 345.807C886.825 348.713 886.102 350.892 884.658 352.344C883.211 353.745 881.492 354.447 879.496 354.447C877.399 354.447 875.659 353.748 874.264 352.344C872.866 350.892 872.167 348.713 872.167 345.807Z"/>
    <path d="M971.999 437.149C971.999 445.243 969.059 451.487 963.181 455.879C957.297 460.271 949.047 462.463 938.417 462.463C927.172 462.463 918.405 460.642 912.108 456.988V444.765C916.184 446.879 920.542 448.549 925.186 449.765C929.881 450.982 934.395 451.59 938.728 451.59C945.433 451.59 950.591 450.507 954.201 448.337C957.814 446.111 959.615 442.754 959.615 438.254C959.615 434.871 958.176 431.989 955.286 429.607C952.447 427.174 946.877 424.314 938.572 421.031C930.68 418.018 925.056 415.396 921.703 413.177C918.404 410.903 915.923 408.333 914.274 405.476C912.675 402.62 911.876 399.211 911.876 395.241C911.876 388.152 914.683 382.569 920.311 378.496C925.935 374.367 933.646 372.305 943.444 372.305C952.573 372.305 961.5 374.212 970.216 378.021L965.652 388.735C957.138 385.136 949.43 383.337 942.515 383.337C936.427 383.337 931.838 384.317 928.738 386.275C925.645 388.23 924.101 390.931 924.101 394.37C924.101 396.696 924.665 398.684 925.801 400.324C926.987 401.96 928.872 403.521 931.451 405.005C934.033 406.485 938.985 408.633 946.309 411.434C956.367 415.192 963.149 418.972 966.661 422.782C970.22 426.591 971.999 431.381 971.999 437.149Z"/>
    <path d="M526.05 3.53138C530.76 -1.17713 538.396 -1.17713 543.108 3.53138L705.857 166.258C710.567 170.967 710.567 178.603 705.857 183.315L690.976 198.191L511.172 18.4129L526.05 3.53138Z"/>
    <path d="M560.271 104.07L461.171 5.02972C456.461 0.321215 448.817 0.321212 444.112 5.03519L283.433 165.765C278.723 170.476 278.723 178.113 283.438 182.822L374.017 273.34C378.727 278.046 386.352 278.052 391.07 273.346L494.458 170.189L598.151 273.406C602.852 278.087 610.447 278.093 615.16 273.417L671.789 217.225L560.271 104.07ZM414.842 172.599C396.186 172.599 381.667 157.414 381.667 139.434C381.667 121.447 396.186 106.267 414.842 106.267C433.498 106.267 448.017 121.449 448.017 139.434C448.011 157.419 433.492 172.599 414.842 172.599Z"/>
    <path d="M426.735 142.302C426.702 140.746 426.072 139.352 424.842 138.122C423.924 137.202 422.932 136.665 421.875 136.509C420.798 136.339 419.77 136.399 418.789 136.695C417.822 136.977 416.6 137.435 415.121 138.073C413.764 138.678 412.729 139.108 412.014 139.358C411.296 139.574 410.666 139.659 410.12 139.615C409.591 139.552 409.093 139.286 408.624 138.821C407.969 138.166 407.69 137.435 407.783 136.624C407.876 135.813 408.065 134.942 409.622 133.384L412.718 130.289L410.663 128.234L408.391 130.505C408.282 130.551 408.197 130.543 408.134 130.483L406.427 128.683C406.35 128.607 406.257 128.574 406.145 128.59C406.035 128.574 405.942 128.607 405.865 128.683L404.04 130.505C403.964 130.584 403.925 130.683 403.925 130.809C403.925 130.902 403.964 130.987 404.04 131.066L405.816 132.748C405.876 132.811 405.884 132.896 405.838 133.006C404.777 134.438 404.265 135.904 404.295 137.399C404.342 138.878 404.958 140.21 406.142 141.393C407.06 142.313 408.052 142.866 409.109 143.05C410.153 143.223 411.181 143.16 412.192 142.866C413.205 142.571 414.436 142.102 415.885 141.464C417.208 140.919 418.23 140.535 418.946 140.319C419.663 140.07 420.302 139.977 420.863 140.037C421.409 140.084 421.899 140.325 422.335 140.763C422.973 141.398 423.261 142.157 423.198 143.028C423.151 143.883 422.787 144.904 421.866 145.822L417.351 150.174L419.302 152.275L422.403 149.479C422.513 149.432 422.598 149.44 422.661 149.503L424.203 151.092C424.28 151.169 424.368 151.207 424.461 151.207C424.584 151.207 424.688 151.169 424.765 151.092L426.59 149.27C426.667 149.191 426.7 149.101 426.683 148.988C426.697 148.879 426.667 148.786 426.59 148.706L425.025 147.186C424.962 147.126 424.954 147.038 425.001 146.929C426.19 145.4 426.768 143.858 426.735 142.302Z"/>
</svg>
